# xmcd
#
# Track frame offsets:
#	150
#	24096
#	53187
#	73138
#	95222
#	110629
#
# Disc length: 1791 seconds
#
# Revision: 1
# Processed by: cddbd v1.5.1PL0 Copyright (c) Steve Scherf et al.
# Submitted via: CDex 1.50Beta5
#
DISCID=5006fd06
DTITLE=笠原弘子 - 悠久幻想曲3〜メルフィ・ナーヴ
DYEAR=2000
DGENRE=Game
TTITLE0=光の帰る場所
TTITLE1=オリジナルドラマ(メルフィの休日)
TTITLE2=After The Rain(Original)
TTITLE3=After The Rain(Arrange)
TTITLE4=メルフィ÷笠原弘子=1...?
TTITLE5=光の帰る場所(カラオケ)
EXTD=
EXTT0=
EXTT1=
EXTT2=
EXTT3=
EXTT4=
EXTT5=
PLAYORDER=
